<svg width="16" height="16" viewBox="0 0 16 16" fill="none" xmlns="http://www.w3.org/2000/svg">
<path d="M15 7H9V1C9 0.73478 8.8946 0.48043 8.7071 0.29289C8.5196 0.10536 8.2652 0 8 0C7.7348 0 7.4804 0.10536 7.2929 0.29289C7.1054 0.48043 7 0.73478 7 1V7H1C0.73478 7 0.48043 7.1054 0.29289 7.2929C0.10536 7.4804 0 7.7348 0 8C0 8.2652 0.10536 8.5196 0.29289 8.7071C0.48043 8.8946 0.73478 9 1 9H7V15C7 15.2652 7.1054 15.5196 7.2929 15.7071C7.4804 15.8946 7.7348 16 8 16C8.2652 16 8.5196 15.8946 8.7071 15.7071C8.8946 15.5196 9 15.2652 9 15V9H15C15.2652 9 15.5196 8.8946 15.7071 8.7071C15.8946 8.5196 16 8.2652 16 8C16 7.7348 15.8946 7.4804 15.7071 7.2929C15.5196 7.1054 15.2652 7 15 7Z" fill="white" fill-opacity="0.87"/>
</svg>
