<svg xmlns="http://www.w3.org/2000/svg" xmlns:xlink="http://www.w3.org/1999/xlink" width="491" zoomAndPan="magnify" viewBox="0 0 368.25 368.249991" height="491" preserveAspectRatio="xMidYMid meet" version="1.0"><defs><g/><clipPath id="0dd70c4f6f"><path d="M 0 0 L 366.753906 0 L 366.753906 366.753906 L 0 366.753906 Z M 0 0 " clip-rule="nonzero"/></clipPath><clipPath id="f97602c423"><path d="M 183.40625 0 C 82.113281 0 0 82.113281 0 183.40625 C 0 284.699219 82.113281 366.8125 183.40625 366.8125 C 284.699219 366.8125 366.8125 284.699219 366.8125 183.40625 C 366.8125 82.113281 284.699219 0 183.40625 0 Z M 183.40625 0 " clip-rule="nonzero"/></clipPath><clipPath id="ac04295a0c"><path d="M 11.859375 11.859375 L 354.660156 11.859375 L 354.660156 354.660156 L 11.859375 354.660156 Z M 11.859375 11.859375 " clip-rule="nonzero"/></clipPath><clipPath id="7a50c0210d"><path d="M 183.40625 11.859375 C 88.664062 11.859375 11.859375 88.664062 11.859375 183.40625 C 11.859375 278.148438 88.664062 354.953125 183.40625 354.953125 C 278.148438 354.953125 354.953125 278.148438 354.953125 183.40625 C 354.953125 88.664062 278.148438 11.859375 183.40625 11.859375 Z M 183.40625 11.859375 " clip-rule="nonzero"/></clipPath><clipPath id="0964404087"><path d="M 118 40 L 249 40 L 249 171.15625 L 118 171.15625 Z M 118 40 " clip-rule="nonzero"/></clipPath><clipPath id="ee08c527ae"><path d="M 117.148438 38.675781 L 249.628906 38.675781 L 249.628906 171.15625 L 117.148438 171.15625 Z M 117.148438 38.675781 " clip-rule="nonzero"/></clipPath><clipPath id="3dc69a70ae"><path d="M 118 225.410156 L 249 225.410156 L 249 303 L 118 303 Z M 118 225.410156 " clip-rule="nonzero"/></clipPath><clipPath id="e1862f023f"><path d="M 117.148438 225.410156 L 249.628906 225.410156 L 249.628906 304.386719 L 117.148438 304.386719 Z M 117.148438 225.410156 " clip-rule="nonzero"/></clipPath></defs><g clip-path="url(#0dd70c4f6f)"><g clip-path="url(#f97602c423)"><path stroke-linecap="butt" transform="matrix(0.748476, 0, 0, 0.748476, 0.0000045, -0.000000000000021273)" fill="none" stroke-linejoin="miter" d="M 245.039725 0.000000000000028422 C 109.707359 0.000000000000028422 -0.00000601222 109.707365 -0.00000601222 245.039731 C -0.00000601222 380.372097 109.707359 490.079462 245.039725 490.079462 C 380.372091 490.079462 490.079456 380.372097 490.079456 245.039731 C 490.079456 109.707365 380.372091 0.000000000000028422 245.039725 0.000000000000028422 Z M 245.039725 0.000000000000028422 " stroke="#c89116" stroke-width="16" stroke-opacity="1" stroke-miterlimit="4"/></g></g><g clip-path="url(#ac04295a0c)"><g clip-path="url(#7a50c0210d)"><path stroke-linecap="butt" transform="matrix(0.748476, 0, 0, 0.748476, 11.858279, 11.858274)" fill="none" stroke-linejoin="miter" d="M 229.196476 0.00147085 C 102.616282 0.00147085 0.00146484 102.616288 0.00146484 229.196482 C 0.00146484 355.776675 102.616282 458.391492 229.196476 458.391492 C 355.776669 458.391492 458.391486 355.776675 458.391486 229.196482 C 458.391486 102.616288 355.776669 0.00147085 229.196476 0.00147085 Z M 229.196476 0.00147085 " stroke="#c89116" stroke-width="32" stroke-opacity="1" stroke-miterlimit="4"/></g></g><g clip-path="url(#0964404087)"><path fill="#f5f5ef" d="M 155.617188 237.859375 L 161.125 170.542969 L 205.664062 170.542969 L 211.171875 237.859375 Z M 216.859375 237.859375 L 149.34375 237.859375 C 149.34375 248.714844 143.683594 259.050781 136.089844 266.257812 L 127.570312 274.339844 C 124.976562 275.984375 123.382812 278.964844 123.382812 282.195312 C 123.382812 287.238281 127.207031 291.324219 131.925781 291.320312 L 234.871094 291.273438 C 239.585938 291.273438 243.40625 287.1875 243.40625 282.148438 L 243.40625 282.140625 C 243.40625 278.917969 241.816406 275.933594 239.222656 274.289062 L 229.027344 264.808594 C 221.765625 258.054688 218.035156 248.441406 217.527344 238.164062 Z M 248.003906 296.925781 C 248.003906 293.828125 245.496094 291.320312 242.398438 291.320312 L 124.390625 291.320312 C 121.292969 291.320312 118.785156 293.828125 118.785156 296.925781 C 118.785156 300.023438 121.292969 302.535156 124.390625 302.535156 L 242.398438 302.535156 C 245.496094 302.535156 248.003906 300.023438 248.003906 296.925781 Z M 223.820312 163.710938 C 223.820312 159.917969 220.75 156.84375 216.957031 156.84375 L 149.832031 156.84375 C 146.039062 156.84375 142.96875 159.917969 142.96875 163.710938 C 142.96875 167.503906 146.039062 170.574219 149.832031 170.574219 L 216.957031 170.574219 C 220.75 170.574219 223.820312 167.503906 223.820312 163.710938 Z M 219.320312 149.980469 C 219.320312 146.1875 216.25 143.117188 212.457031 143.117188 L 154.332031 143.117188 C 150.542969 143.117188 147.46875 146.1875 147.46875 149.980469 C 147.46875 153.773438 150.542969 156.84375 154.332031 156.84375 L 212.449219 156.84375 C 216.25 156.84375 219.320312 153.773438 219.320312 149.980469 Z M 202.238281 75.179688 C 202.238281 71.386719 199.164062 68.316406 195.371094 68.316406 L 171.417969 68.316406 C 167.625 68.316406 164.550781 71.386719 164.550781 75.179688 C 164.550781 78.972656 167.625 82.046875 171.417969 82.046875 L 195.367188 82.046875 C 199.164062 82.046875 202.238281 78.972656 202.238281 75.179688 Z M 216.242188 82.046875 L 150.546875 82.046875 C 145.492188 82.046875 141.804688 86.847656 143.121094 91.734375 L 156.914062 143.117188 L 209.882812 143.117188 L 223.675781 91.734375 C 224.988281 86.847656 221.304688 82.046875 216.242188 82.046875 Z M 198.265625 49.378906 L 189.40625 49.378906 L 189.40625 40.515625 L 179.332031 40.515625 L 179.332031 49.378906 L 170.46875 49.378906 L 170.46875 59.460938 L 179.332031 59.460938 L 179.332031 68.324219 L 189.410156 68.324219 L 189.410156 59.453125 L 198.273438 59.453125 L 198.273438 49.378906 Z M 198.265625 49.378906 " fill-opacity="1" fill-rule="nonzero"/></g><g clip-path="url(#ee08c527ae)"><path fill="#000000" d="M 211.171875 239.5 L 155.625 239.5 C 155.164062 239.5 154.726562 239.308594 154.417969 238.96875 C 154.109375 238.628906 153.953125 238.183594 153.992188 237.722656 L 159.503906 170.40625 C 159.574219 169.554688 160.28125 168.898438 161.132812 168.898438 L 205.667969 168.898438 C 206.519531 168.898438 207.234375 169.554688 207.300781 170.40625 L 212.808594 237.722656 C 212.847656 238.183594 212.691406 238.628906 212.382812 238.96875 C 212.0625 239.308594 211.628906 239.5 211.171875 239.5 Z M 157.398438 236.222656 L 209.398438 236.222656 L 204.15625 172.179688 L 162.632812 172.179688 Z M 131.925781 292.957031 C 129.1875 292.957031 126.617188 291.824219 124.691406 289.765625 C 122.792969 287.734375 121.75 285.050781 121.75 282.195312 C 121.75 278.488281 123.585938 275.003906 126.558594 273.050781 L 134.96875 265.070312 C 142.949219 257.5 147.710938 247.328125 147.710938 237.859375 C 147.710938 236.957031 148.445312 236.222656 149.347656 236.222656 L 216.863281 236.222656 C 217.09375 236.222656 217.324219 236.277344 217.53125 236.367188 L 218.199219 236.667969 C 218.765625 236.917969 219.136719 237.46875 219.164062 238.082031 C 219.675781 248.433594 223.570312 257.5 230.140625 263.609375 L 240.230469 272.992188 C 243.203125 274.941406 245.042969 278.433594 245.042969 282.140625 C 245.042969 288.082031 240.476562 292.910156 234.871094 292.917969 Z M 150.941406 239.5 C 150.449219 249.476562 145.511719 259.582031 137.21875 267.449219 L 128.695312 275.53125 C 128.617188 275.605469 128.53125 275.671875 128.445312 275.730469 C 126.335938 277.066406 125.019531 279.546875 125.019531 282.195312 C 125.019531 284.21875 125.753906 286.113281 127.082031 287.53125 C 128.382812 288.921875 130.105469 289.6875 131.925781 289.6875 L 234.871094 289.640625 C 238.675781 289.640625 241.769531 286.28125 241.769531 282.15625 C 241.769531 279.496094 240.457031 277.019531 238.34375 275.675781 C 238.257812 275.625 238.179688 275.558594 238.105469 275.492188 L 227.914062 266.015625 C 220.984375 259.570312 216.773438 250.195312 215.972656 239.503906 L 150.941406 239.503906 Z M 242.398438 304.171875 L 124.390625 304.171875 C 120.394531 304.171875 117.148438 300.921875 117.148438 296.925781 C 117.148438 292.929688 120.394531 289.683594 124.390625 289.683594 L 242.398438 289.683594 C 246.394531 289.683594 249.640625 292.929688 249.640625 296.925781 C 249.640625 300.921875 246.394531 304.171875 242.398438 304.171875 Z M 124.390625 292.957031 C 122.203125 292.957031 120.421875 294.738281 120.421875 296.925781 C 120.421875 299.113281 122.203125 300.894531 124.390625 300.894531 L 242.398438 300.894531 C 244.585938 300.894531 246.367188 299.113281 246.367188 296.925781 C 246.367188 294.738281 244.585938 292.957031 242.398438 292.957031 Z M 216.957031 172.210938 L 149.832031 172.210938 C 145.144531 172.210938 141.332031 168.402344 141.332031 163.710938 C 141.332031 159.019531 145.144531 155.207031 149.832031 155.207031 L 216.957031 155.207031 C 221.644531 155.207031 225.457031 159.019531 225.457031 163.710938 C 225.457031 168.402344 221.644531 172.210938 216.957031 172.210938 Z M 149.832031 158.484375 C 146.953125 158.484375 144.605469 160.828125 144.605469 163.710938 C 144.605469 166.59375 146.953125 168.9375 149.832031 168.9375 L 216.957031 168.9375 C 219.839844 168.9375 222.183594 166.59375 222.183594 163.710938 C 222.183594 160.828125 219.839844 158.484375 216.957031 158.484375 Z M 212.457031 158.484375 L 154.332031 158.484375 C 149.644531 158.484375 145.832031 154.671875 145.832031 149.980469 C 145.832031 145.289062 149.644531 141.476562 154.332031 141.476562 L 212.457031 141.476562 C 217.144531 141.476562 220.957031 145.289062 220.957031 149.980469 C 220.957031 154.671875 217.144531 158.484375 212.457031 158.484375 Z M 154.332031 144.753906 C 151.453125 144.753906 149.105469 147.097656 149.105469 149.980469 C 149.105469 152.863281 151.453125 155.207031 154.332031 155.207031 L 212.457031 155.207031 C 215.339844 155.207031 217.683594 152.863281 217.683594 149.980469 C 217.683594 147.097656 215.339844 144.753906 212.457031 144.753906 Z M 195.371094 83.683594 L 171.417969 83.683594 C 166.726562 83.683594 162.914062 79.871094 162.914062 75.179688 C 162.914062 70.492188 166.726562 66.679688 171.417969 66.679688 L 195.367188 66.679688 C 200.054688 66.679688 203.867188 70.492188 203.867188 75.179688 C 203.875 79.871094 200.054688 83.683594 195.371094 83.683594 Z M 171.417969 69.953125 C 168.535156 69.953125 166.191406 72.300781 166.191406 75.179688 C 166.191406 78.0625 168.535156 80.410156 171.417969 80.410156 L 195.367188 80.410156 C 198.246094 80.410156 200.59375 78.0625 200.59375 75.179688 C 200.59375 72.300781 198.246094 69.953125 195.367188 69.953125 Z M 209.875 144.753906 L 156.914062 144.753906 C 156.175781 144.753906 155.527344 144.253906 155.335938 143.542969 L 141.535156 92.160156 C 140.773438 89.335938 141.363281 86.382812 143.140625 84.0625 C 144.921875 81.746094 147.621094 80.410156 150.542969 80.410156 L 216.234375 80.410156 C 219.164062 80.410156 221.855469 81.738281 223.636719 84.0625 C 225.417969 86.390625 226.003906 89.335938 225.242188 92.160156 L 211.445312 143.542969 C 211.269531 144.253906 210.621094 144.753906 209.875 144.753906 Z M 158.164062 141.476562 L 208.617188 141.476562 L 222.085938 91.308594 C 222.574219 89.472656 222.195312 87.5625 221.042969 86.054688 C 219.890625 84.546875 218.136719 83.683594 216.234375 83.683594 L 150.546875 83.683594 C 148.648438 83.683594 146.898438 84.546875 145.738281 86.054688 C 144.585938 87.5625 144.207031 89.472656 144.699219 91.308594 Z M 161.972656 126.320312 C 162.84375 126.085938 163.359375 125.1875 163.132812 124.316406 L 157.085938 101.796875 C 156.847656 100.925781 155.953125 100.40625 155.082031 100.636719 C 154.210938 100.871094 153.691406 101.769531 153.921875 102.640625 L 159.96875 125.160156 C 160.164062 125.894531 160.824219 126.371094 161.546875 126.371094 C 161.683594 126.378906 161.828125 126.359375 161.972656 126.320312 Z M 189.410156 69.953125 L 179.332031 69.953125 C 178.425781 69.953125 177.691406 69.21875 177.691406 68.316406 L 177.691406 61.089844 L 170.46875 61.089844 C 169.5625 61.089844 168.828125 60.359375 168.828125 59.453125 L 168.828125 49.378906 C 168.828125 48.476562 169.5625 47.742188 170.46875 47.742188 L 177.691406 47.742188 L 177.691406 40.515625 C 177.691406 39.613281 178.425781 38.878906 179.332031 38.878906 L 189.410156 38.878906 C 190.316406 38.878906 191.050781 39.613281 191.050781 40.515625 L 191.050781 47.742188 L 198.273438 47.742188 C 199.179688 47.742188 199.910156 48.476562 199.910156 49.378906 L 199.910156 59.460938 C 199.910156 60.363281 199.179688 61.097656 198.273438 61.097656 L 191.050781 61.097656 L 191.050781 68.324219 C 191.050781 69.21875 190.316406 69.953125 189.410156 69.953125 Z M 180.96875 66.679688 L 187.773438 66.679688 L 187.773438 59.453125 C 187.773438 58.550781 188.507812 57.816406 189.410156 57.816406 L 196.636719 57.816406 L 196.636719 51.015625 L 189.410156 51.015625 C 188.507812 51.015625 187.773438 50.28125 187.773438 49.378906 L 187.773438 42.152344 L 180.96875 42.152344 L 180.96875 49.378906 C 180.96875 50.28125 180.234375 51.015625 179.332031 51.015625 L 172.105469 51.015625 L 172.105469 57.824219 L 179.332031 57.824219 C 180.234375 57.824219 180.96875 58.554688 180.96875 59.460938 Z M 180.96875 66.679688 " fill-opacity="1" fill-rule="nonzero"/></g><g clip-path="url(#3dc69a70ae)"><path fill="#f5f5ef" d="M 155.617188 237.859375 L 161.125 170.542969 L 205.664062 170.542969 L 211.171875 237.859375 Z M 216.859375 237.859375 L 149.34375 237.859375 C 149.34375 248.714844 143.683594 259.050781 136.089844 266.257812 L 127.570312 274.339844 C 124.976562 275.984375 123.382812 278.964844 123.382812 282.195312 C 123.382812 287.238281 127.207031 291.324219 131.925781 291.320312 L 234.871094 291.273438 C 239.585938 291.273438 243.40625 287.1875 243.40625 282.148438 L 243.40625 282.140625 C 243.40625 278.917969 241.816406 275.933594 239.222656 274.289062 L 229.027344 264.808594 C 221.765625 258.054688 218.035156 248.441406 217.527344 238.164062 Z M 248.003906 296.925781 C 248.003906 293.828125 245.496094 291.320312 242.398438 291.320312 L 124.390625 291.320312 C 121.292969 291.320312 118.785156 293.828125 118.785156 296.925781 C 118.785156 300.023438 121.292969 302.535156 124.390625 302.535156 L 242.398438 302.535156 C 245.496094 302.535156 248.003906 300.023438 248.003906 296.925781 Z M 223.820312 163.710938 C 223.820312 159.917969 220.75 156.84375 216.957031 156.84375 L 149.832031 156.84375 C 146.039062 156.84375 142.96875 159.917969 142.96875 163.710938 C 142.96875 167.503906 146.039062 170.574219 149.832031 170.574219 L 216.957031 170.574219 C 220.75 170.574219 223.820312 167.503906 223.820312 163.710938 Z M 219.320312 149.980469 C 219.320312 146.1875 216.25 143.117188 212.457031 143.117188 L 154.332031 143.117188 C 150.542969 143.117188 147.46875 146.1875 147.46875 149.980469 C 147.46875 153.773438 150.542969 156.84375 154.332031 156.84375 L 212.449219 156.84375 C 216.25 156.84375 219.320312 153.773438 219.320312 149.980469 Z M 202.238281 75.179688 C 202.238281 71.386719 199.164062 68.316406 195.371094 68.316406 L 171.417969 68.316406 C 167.625 68.316406 164.550781 71.386719 164.550781 75.179688 C 164.550781 78.972656 167.625 82.046875 171.417969 82.046875 L 195.367188 82.046875 C 199.164062 82.046875 202.238281 78.972656 202.238281 75.179688 Z M 216.242188 82.046875 L 150.546875 82.046875 C 145.492188 82.046875 141.804688 86.847656 143.121094 91.734375 L 156.914062 143.117188 L 209.882812 143.117188 L 223.675781 91.734375 C 224.988281 86.847656 221.304688 82.046875 216.242188 82.046875 Z M 198.265625 49.378906 L 189.40625 49.378906 L 189.40625 40.515625 L 179.332031 40.515625 L 179.332031 49.378906 L 170.46875 49.378906 L 170.46875 59.460938 L 179.332031 59.460938 L 179.332031 68.324219 L 189.410156 68.324219 L 189.410156 59.453125 L 198.273438 59.453125 L 198.273438 49.378906 Z M 198.265625 49.378906 " fill-opacity="1" fill-rule="nonzero"/></g><g clip-path="url(#e1862f023f)"><path fill="#000000" d="M 211.171875 239.5 L 155.625 239.5 C 155.164062 239.5 154.726562 239.308594 154.417969 238.96875 C 154.109375 238.628906 153.953125 238.183594 153.992188 237.722656 L 159.503906 170.40625 C 159.574219 169.554688 160.28125 168.898438 161.132812 168.898438 L 205.667969 168.898438 C 206.519531 168.898438 207.234375 169.554688 207.300781 170.40625 L 212.808594 237.722656 C 212.847656 238.183594 212.691406 238.628906 212.382812 238.96875 C 212.0625 239.308594 211.628906 239.5 211.171875 239.5 Z M 157.398438 236.222656 L 209.398438 236.222656 L 204.15625 172.179688 L 162.632812 172.179688 Z M 131.925781 292.957031 C 129.1875 292.957031 126.617188 291.824219 124.691406 289.765625 C 122.792969 287.734375 121.75 285.050781 121.75 282.195312 C 121.75 278.488281 123.585938 275.003906 126.558594 273.050781 L 134.96875 265.070312 C 142.949219 257.5 147.710938 247.328125 147.710938 237.859375 C 147.710938 236.957031 148.445312 236.222656 149.347656 236.222656 L 216.863281 236.222656 C 217.09375 236.222656 217.324219 236.277344 217.53125 236.367188 L 218.199219 236.667969 C 218.765625 236.917969 219.136719 237.46875 219.164062 238.082031 C 219.675781 248.433594 223.570312 257.5 230.140625 263.609375 L 240.230469 272.992188 C 243.203125 274.941406 245.042969 278.433594 245.042969 282.140625 C 245.042969 288.082031 240.476562 292.910156 234.871094 292.917969 Z M 150.941406 239.5 C 150.449219 249.476562 145.511719 259.582031 137.21875 267.449219 L 128.695312 275.53125 C 128.617188 275.605469 128.53125 275.671875 128.445312 275.730469 C 126.335938 277.066406 125.019531 279.546875 125.019531 282.195312 C 125.019531 284.21875 125.753906 286.113281 127.082031 287.53125 C 128.382812 288.921875 130.105469 289.6875 131.925781 289.6875 L 234.871094 289.640625 C 238.675781 289.640625 241.769531 286.28125 241.769531 282.15625 C 241.769531 279.496094 240.457031 277.019531 238.34375 275.675781 C 238.257812 275.625 238.179688 275.558594 238.105469 275.492188 L 227.914062 266.015625 C 220.984375 259.570312 216.773438 250.195312 215.972656 239.503906 L 150.941406 239.503906 Z M 242.398438 304.171875 L 124.390625 304.171875 C 120.394531 304.171875 117.148438 300.921875 117.148438 296.925781 C 117.148438 292.929688 120.394531 289.683594 124.390625 289.683594 L 242.398438 289.683594 C 246.394531 289.683594 249.640625 292.929688 249.640625 296.925781 C 249.640625 300.921875 246.394531 304.171875 242.398438 304.171875 Z M 124.390625 292.957031 C 122.203125 292.957031 120.421875 294.738281 120.421875 296.925781 C 120.421875 299.113281 122.203125 300.894531 124.390625 300.894531 L 242.398438 300.894531 C 244.585938 300.894531 246.367188 299.113281 246.367188 296.925781 C 246.367188 294.738281 244.585938 292.957031 242.398438 292.957031 Z M 216.957031 172.210938 L 149.832031 172.210938 C 145.144531 172.210938 141.332031 168.402344 141.332031 163.710938 C 141.332031 159.019531 145.144531 155.207031 149.832031 155.207031 L 216.957031 155.207031 C 221.644531 155.207031 225.457031 159.019531 225.457031 163.710938 C 225.457031 168.402344 221.644531 172.210938 216.957031 172.210938 Z M 149.832031 158.484375 C 146.953125 158.484375 144.605469 160.828125 144.605469 163.710938 C 144.605469 166.59375 146.953125 168.9375 149.832031 168.9375 L 216.957031 168.9375 C 219.839844 168.9375 222.183594 166.59375 222.183594 163.710938 C 222.183594 160.828125 219.839844 158.484375 216.957031 158.484375 Z M 212.457031 158.484375 L 154.332031 158.484375 C 149.644531 158.484375 145.832031 154.671875 145.832031 149.980469 C 145.832031 145.289062 149.644531 141.476562 154.332031 141.476562 L 212.457031 141.476562 C 217.144531 141.476562 220.957031 145.289062 220.957031 149.980469 C 220.957031 154.671875 217.144531 158.484375 212.457031 158.484375 Z M 154.332031 144.753906 C 151.453125 144.753906 149.105469 147.097656 149.105469 149.980469 C 149.105469 152.863281 151.453125 155.207031 154.332031 155.207031 L 212.457031 155.207031 C 215.339844 155.207031 217.683594 152.863281 217.683594 149.980469 C 217.683594 147.097656 215.339844 144.753906 212.457031 144.753906 Z M 195.371094 83.683594 L 171.417969 83.683594 C 166.726562 83.683594 162.914062 79.871094 162.914062 75.179688 C 162.914062 70.492188 166.726562 66.679688 171.417969 66.679688 L 195.367188 66.679688 C 200.054688 66.679688 203.867188 70.492188 203.867188 75.179688 C 203.875 79.871094 200.054688 83.683594 195.371094 83.683594 Z M 171.417969 69.953125 C 168.535156 69.953125 166.191406 72.300781 166.191406 75.179688 C 166.191406 78.0625 168.535156 80.410156 171.417969 80.410156 L 195.367188 80.410156 C 198.246094 80.410156 200.59375 78.0625 200.59375 75.179688 C 200.59375 72.300781 198.246094 69.953125 195.367188 69.953125 Z M 209.875 144.753906 L 156.914062 144.753906 C 156.175781 144.753906 155.527344 144.253906 155.335938 143.542969 L 141.535156 92.160156 C 140.773438 89.335938 141.363281 86.382812 143.140625 84.0625 C 144.921875 81.746094 147.621094 80.410156 150.542969 80.410156 L 216.234375 80.410156 C 219.164062 80.410156 221.855469 81.738281 223.636719 84.0625 C 225.417969 86.390625 226.003906 89.335938 225.242188 92.160156 L 211.445312 143.542969 C 211.269531 144.253906 210.621094 144.753906 209.875 144.753906 Z M 158.164062 141.476562 L 208.617188 141.476562 L 222.085938 91.308594 C 222.574219 89.472656 222.195312 87.5625 221.042969 86.054688 C 219.890625 84.546875 218.136719 83.683594 216.234375 83.683594 L 150.546875 83.683594 C 148.648438 83.683594 146.898438 84.546875 145.738281 86.054688 C 144.585938 87.5625 144.207031 89.472656 144.699219 91.308594 Z M 161.972656 126.320312 C 162.84375 126.085938 163.359375 125.1875 163.132812 124.316406 L 157.085938 101.796875 C 156.847656 100.925781 155.953125 100.40625 155.082031 100.636719 C 154.210938 100.871094 153.691406 101.769531 153.921875 102.640625 L 159.96875 125.160156 C 160.164062 125.894531 160.824219 126.371094 161.546875 126.371094 C 161.683594 126.378906 161.828125 126.359375 161.972656 126.320312 Z M 189.410156 69.953125 L 179.332031 69.953125 C 178.425781 69.953125 177.691406 69.21875 177.691406 68.316406 L 177.691406 61.089844 L 170.46875 61.089844 C 169.5625 61.089844 168.828125 60.359375 168.828125 59.453125 L 168.828125 49.378906 C 168.828125 48.476562 169.5625 47.742188 170.46875 47.742188 L 177.691406 47.742188 L 177.691406 40.515625 C 177.691406 39.613281 178.425781 38.878906 179.332031 38.878906 L 189.410156 38.878906 C 190.316406 38.878906 191.050781 39.613281 191.050781 40.515625 L 191.050781 47.742188 L 198.273438 47.742188 C 199.179688 47.742188 199.910156 48.476562 199.910156 49.378906 L 199.910156 59.460938 C 199.910156 60.363281 199.179688 61.097656 198.273438 61.097656 L 191.050781 61.097656 L 191.050781 68.324219 C 191.050781 69.21875 190.316406 69.953125 189.410156 69.953125 Z M 180.96875 66.679688 L 187.773438 66.679688 L 187.773438 59.453125 C 187.773438 58.550781 188.507812 57.816406 189.410156 57.816406 L 196.636719 57.816406 L 196.636719 51.015625 L 189.410156 51.015625 C 188.507812 51.015625 187.773438 50.28125 187.773438 49.378906 L 187.773438 42.152344 L 180.96875 42.152344 L 180.96875 49.378906 C 180.96875 50.28125 180.234375 51.015625 179.332031 51.015625 L 172.105469 51.015625 L 172.105469 57.824219 L 179.332031 57.824219 C 180.234375 57.824219 180.96875 58.554688 180.96875 59.460938 Z M 180.96875 66.679688 " fill-opacity="1" fill-rule="nonzero"/></g><g fill="#e4c88b" fill-opacity="1"><g transform="translate(79.525291, 212.776604)"><g><path d="M 36.828125 -28.992188 C 36.429688 -28.992188 36.089844 -28.785156 35.941406 -28.390625 L 29.351562 -12.496094 L 22.574219 -28.824219 C 22.445312 -29.164062 22.160156 -29.429688 21.6875 -29.429688 C 21.160156 -29.429688 20.933594 -29.125 20.800781 -28.824219 L 14.269531 -12.515625 L 7.683594 -28.390625 C 7.53125 -28.785156 7.191406 -28.992188 6.796875 -28.992188 L 1.226562 -28.992188 C 0.640625 -28.992188 0.394531 -28.617188 0.640625 -28.070312 L 13.308594 0 C 13.816406 1.09375 14.761719 1.09375 15.214844 0 L 21.800781 -16.382812 L 28.410156 0 C 28.863281 1.09375 29.804688 1.09375 30.316406 0 L 42.980469 -28.070312 C 43.226562 -28.617188 42.925781 -28.992188 42.394531 -28.992188 Z M 36.828125 -28.992188 "/></g></g></g><g fill="#e4c88b" fill-opacity="1"><g transform="translate(128.630325, 212.776604)"><g><path d="M 20.480469 -10.683594 C 23.480469 -12.175781 25.125 -15.234375 25.125 -19.5 C 25.125 -24.859375 22.539062 -28.992188 14.460938 -28.992188 L 3.644531 -28.992188 C 3.132812 -28.992188 2.871094 -28.730469 2.871094 -28.21875 L 2.871094 -0.773438 C 2.871094 -0.265625 3.132812 0 3.644531 0 L 8.722656 0 C 9.210938 0 9.496094 -0.265625 9.496094 -0.773438 L 9.496094 -9.664062 L 13.910156 -9.664062 L 18.5 -0.585938 C 18.6875 -0.1875 18.953125 0 19.386719 0 L 25.164062 0 C 25.726562 0 25.972656 -0.378906 25.710938 -0.925781 Z M 13.421875 -23.292969 C 15.214844 -23.292969 18.554688 -23.273438 18.554688 -19.441406 C 18.554688 -15.382812 14.855469 -15.367188 13.421875 -15.367188 L 9.496094 -15.367188 L 9.496094 -23.292969 Z M 13.421875 -23.292969 "/></g></g></g><g fill="#e4c88b" fill-opacity="1"><g transform="translate(161.655639, 212.776604)"><g><path d="M 11.589844 0.734375 C 16.894531 0.734375 22.253906 -1.511719 22.253906 -7.796875 C 22.253906 -13.042969 18.367188 -15.328125 14.835938 -17.0625 C 11.457031 -18.6875 8.722656 -19.746094 8.722656 -21.859375 C 8.722656 -23.519531 10.25 -24.105469 12.230469 -24.105469 C 14.023438 -24.105469 16.214844 -23.652344 18.160156 -22.898438 C 18.632812 -22.726562 18.972656 -22.914062 19.140625 -23.367188 L 20.367188 -27.3125 C 20.539062 -27.785156 20.386719 -28.125 19.894531 -28.296875 C 17.289062 -29.183594 14.308594 -29.730469 12.042969 -29.730469 C 6.890625 -29.730469 2.019531 -27.371094 2.019531 -21.386719 C 2.019531 -16.820312 5.117188 -14.554688 8.550781 -12.742188 C 12.042969 -10.910156 15.535156 -9.722656 15.535156 -7.492188 C 15.535156 -5.71875 13.929688 -4.90625 11.550781 -4.90625 C 9.515625 -4.90625 6.871094 -5.457031 4.246094 -6.492188 C 3.773438 -6.664062 3.417969 -6.550781 3.246094 -6.058594 L 1.832031 -1.90625 C 1.640625 -1.414062 1.8125 -1.09375 2.304688 -0.90625 C 5.851562 0.28125 8.777344 0.734375 11.589844 0.734375 Z M 11.589844 0.734375 "/></g></g></g><g fill="#e4c88b" fill-opacity="1"><g transform="translate(190.96296, 212.776604)"><g><path d="M 11.589844 0.734375 C 16.894531 0.734375 22.253906 -1.511719 22.253906 -7.796875 C 22.253906 -13.042969 18.367188 -15.328125 14.835938 -17.0625 C 11.457031 -18.6875 8.722656 -19.746094 8.722656 -21.859375 C 8.722656 -23.519531 10.25 -24.105469 12.230469 -24.105469 C 14.023438 -24.105469 16.214844 -23.652344 18.160156 -22.898438 C 18.632812 -22.726562 18.972656 -22.914062 19.140625 -23.367188 L 20.367188 -27.3125 C 20.539062 -27.785156 20.386719 -28.125 19.894531 -28.296875 C 17.289062 -29.183594 14.308594 -29.730469 12.042969 -29.730469 C 6.890625 -29.730469 2.019531 -27.371094 2.019531 -21.386719 C 2.019531 -16.820312 5.117188 -14.554688 8.550781 -12.742188 C 12.042969 -10.910156 15.535156 -9.722656 15.535156 -7.492188 C 15.535156 -5.71875 13.929688 -4.90625 11.550781 -4.90625 C 9.515625 -4.90625 6.871094 -5.457031 4.246094 -6.492188 C 3.773438 -6.664062 3.417969 -6.550781 3.246094 -6.058594 L 1.832031 -1.90625 C 1.640625 -1.414062 1.8125 -1.09375 2.304688 -0.90625 C 5.851562 0.28125 8.777344 0.734375 11.589844 0.734375 Z M 11.589844 0.734375 "/></g></g></g><g fill="#e4c88b" fill-opacity="1"><g transform="translate(220.270296, 212.776604)"><g><path d="M 17.195312 0.734375 C 22.386719 0.734375 26.652344 -1.226562 29.371094 -4.453125 C 29.671875 -4.8125 29.578125 -5.132812 29.164062 -5.457031 L 25.011719 -8.269531 C 24.613281 -8.550781 24.273438 -8.496094 23.953125 -8.117188 C 22.367188 -6.363281 20.007812 -5.285156 17.214844 -5.285156 C 12.003906 -5.285156 8.285156 -8.890625 8.285156 -14.496094 C 8.285156 -20.121094 12.003906 -23.707031 17.195312 -23.707031 C 20.007812 -23.707031 22.347656 -22.632812 23.953125 -20.878906 C 24.273438 -20.5 24.632812 -20.441406 25.011719 -20.726562 L 29.164062 -23.558594 C 29.558594 -23.859375 29.636719 -24.21875 29.296875 -24.597656 C 26.539062 -27.804688 22.3125 -29.730469 17.195312 -29.730469 C 8.097656 -29.730469 1.679688 -23.707031 1.679688 -14.496094 C 1.679688 -5.285156 8.078125 0.734375 17.195312 0.734375 Z M 17.195312 0.734375 "/></g></g></g><g fill="#e4c88b" fill-opacity="1"><g transform="translate(256.522869, 212.776604)"><g><path d="M 17.195312 0.734375 C 22.386719 0.734375 26.652344 -1.226562 29.371094 -4.453125 C 29.671875 -4.8125 29.578125 -5.132812 29.164062 -5.457031 L 25.011719 -8.269531 C 24.613281 -8.550781 24.273438 -8.496094 23.953125 -8.117188 C 22.367188 -6.363281 20.007812 -5.285156 17.214844 -5.285156 C 12.003906 -5.285156 8.285156 -8.890625 8.285156 -14.496094 C 8.285156 -20.121094 12.003906 -23.707031 17.195312 -23.707031 C 20.007812 -23.707031 22.347656 -22.632812 23.953125 -20.878906 C 24.273438 -20.5 24.632812 -20.441406 25.011719 -20.726562 L 29.164062 -23.558594 C 29.558594 -23.859375 29.636719 -24.21875 29.296875 -24.597656 C 26.539062 -27.804688 22.3125 -29.730469 17.195312 -29.730469 C 8.097656 -29.730469 1.679688 -23.707031 1.679688 -14.496094 C 1.679688 -5.285156 8.078125 0.734375 17.195312 0.734375 Z M 17.195312 0.734375 "/></g></g></g><path stroke-linecap="butt" transform="matrix(0.748476, 0, 0, 0.748476, 155.08341, 224.287688)" fill="none" stroke-linejoin="miter" d="M -0.00184218 1.499672 L 75.678025 1.499672 " stroke="#000000" stroke-width="3" stroke-opacity="1" stroke-miterlimit="4"/></svg>