<svg xmlns="http://www.w3.org/2000/svg" xmlns:xlink="http://www.w3.org/1999/xlink" width="403" zoomAndPan="magnify" viewBox="0 0 302.25 372.749993" height="497" preserveAspectRatio="xMidYMid meet" version="1.0"><defs><clipPath id="39752c6f6e"><path d="M 46 81 L 301.5 81 L 301.5 354 L 46 354 Z M 46 81 " clip-rule="nonzero"/></clipPath><clipPath id="79b0b1f607"><path d="M 0 137.003906 L 130.429688 34.175781 L 301.34375 250.96875 L 170.917969 353.796875 Z M 0 137.003906 " clip-rule="nonzero"/></clipPath><clipPath id="ea0cff5e46"><path d="M 0 137.003906 L 130.429688 34.175781 L 337.9375 297.378906 L 207.507812 400.207031 Z M 0 137.003906 " clip-rule="nonzero"/></clipPath><clipPath id="89867614dd"><path d="M 0 137.003906 L 130.429688 34.175781 L 337.9375 297.378906 L 207.507812 400.207031 Z M 0 137.003906 " clip-rule="nonzero"/></clipPath><clipPath id="60d0539c8f"><path d="M 44 79 L 301.5 79 L 301.5 354 L 44 354 Z M 44 79 " clip-rule="nonzero"/></clipPath><clipPath id="0d5f75bcde"><path d="M 0 137.003906 L 130.429688 34.175781 L 301.34375 250.96875 L 170.917969 353.796875 Z M 0 137.003906 " clip-rule="nonzero"/></clipPath><clipPath id="dd498c6d72"><path d="M 0 137.003906 L 130.429688 34.175781 L 337.9375 297.378906 L 207.507812 400.207031 Z M 0 137.003906 " clip-rule="nonzero"/></clipPath><clipPath id="f29ec3b8ef"><path d="M 0 137.003906 L 130.429688 34.175781 L 337.9375 297.378906 L 207.507812 400.207031 Z M 0 137.003906 " clip-rule="nonzero"/></clipPath><clipPath id="bc9fba9998"><path d="M 38 28 L 251 28 L 251 367 L 38 367 Z M 38 28 " clip-rule="nonzero"/></clipPath><clipPath id="c4abb942e1"><path d="M 143.664062 0.335938 L 301.292969 54.996094 L 191.484375 371.667969 L 33.855469 317.007812 Z M 143.664062 0.335938 " clip-rule="nonzero"/></clipPath><clipPath id="451ffbb443"><path d="M 143.664062 0.335938 L 301.292969 54.996094 L 191.484375 371.667969 L 33.855469 317.007812 Z M 143.664062 0.335938 " clip-rule="nonzero"/></clipPath><clipPath id="2d18f849e1"><path d="M 143.664062 0.335938 L 301.292969 54.996094 L 191.484375 371.667969 L 33.855469 317.007812 Z M 143.664062 0.335938 " clip-rule="nonzero"/></clipPath><clipPath id="be4ae90379"><path d="M 36 26 L 253 26 L 253 369 L 36 369 Z M 36 26 " clip-rule="nonzero"/></clipPath><clipPath id="7341fe552f"><path d="M 143.664062 0.335938 L 301.292969 54.996094 L 191.484375 371.667969 L 33.855469 317.007812 Z M 143.664062 0.335938 " clip-rule="nonzero"/></clipPath><clipPath id="1d4f76fdc9"><path d="M 143.664062 0.335938 L 301.292969 54.996094 L 191.484375 371.667969 L 33.855469 317.007812 Z M 143.664062 0.335938 " clip-rule="nonzero"/></clipPath><clipPath id="647b797db9"><path d="M 143.664062 0.335938 L 301.292969 54.996094 L 191.484375 371.667969 L 33.855469 317.007812 Z M 143.664062 0.335938 " clip-rule="nonzero"/></clipPath></defs><g clip-path="url(#39752c6f6e)"><g clip-path="url(#79b0b1f607)"><g clip-path="url(#ea0cff5e46)"><g clip-path="url(#89867614dd)"><path fill="#ffffff" d="M 89.109375 95.0625 L 68.835938 111.042969 L 64.597656 105.664062 C 60.175781 100.058594 61.132812 91.933594 66.726562 87.519531 C 72.324219 83.109375 80.445312 84.078125 84.867188 89.683594 Z M 117.585938 110.203125 C 117.300781 109.644531 105.871094 95.03125 105.464844 94.511719 C 102.207031 90.378906 96.230469 89.667969 92.101562 92.921875 L 66.050781 113.460938 C 61.921875 116.714844 61.222656 122.691406 64.480469 126.824219 C 64.941406 127.414062 76.550781 141.992188 77.105469 142.441406 M 126.136719 81.242188 C 120.65625 85.5625 119.722656 93.515625 124.050781 99.003906 C 119.722656 93.515625 111.773438 92.566406 106.292969 96.886719 C 100.8125 101.207031 99.878906 109.160156 104.203125 114.648438 C 99.878906 109.160156 91.925781 108.210938 86.445312 112.53125 C 80.964844 116.851562 80.03125 124.804688 84.359375 130.292969 C 80.03125 124.804688 72.082031 123.859375 66.601562 128.179688 C 61.121094 132.5 60.1875 140.449219 64.515625 145.941406 C 60.1875 140.449219 52.238281 139.503906 46.757812 143.824219 L 108.257812 192.023438 L 158.039062 152.777344 Z M 253.867188 257.15625 L 188.058594 309.039062 L 187.414062 309.546875 C 195.851562 320.246094 198.316406 334.828125 196.445312 347.824219 L 194.339844 362.40625 C 193.0625 366.039062 193.8125 370.210938 196.324219 373.398438 C 200.242188 378.371094 207.1875 379.429688 211.824219 375.765625 L 313.113281 295.835938 C 317.753906 292.175781 318.335938 285.183594 314.421875 280.214844 L 314.417969 280.210938 C 311.910156 277.03125 308.023438 275.324219 304.191406 275.714844 L 286.792969 274.277344 C 274.394531 273.257812 263.25 266.671875 254.757812 256.933594 Z M 330.433594 291.21875 C 328.023438 288.164062 323.605469 287.636719 320.554688 290.039062 L 204.410156 381.609375 C 201.359375 384.015625 200.839844 388.433594 203.25 391.488281 C 205.65625 394.542969 210.074219 395.070312 213.125 392.664062 L 329.273438 301.097656 C 332.324219 298.691406 332.839844 294.273438 330.433594 291.21875 Z M 248.273438 261.566406 L 176.097656 181.171875 L 132.261719 215.730469 L 193.59375 304.675781 Z M 189.21875 161.058594 C 186.269531 157.316406 180.859375 156.671875 177.125 159.617188 L 111.058594 211.699219 C 107.328125 214.644531 106.691406 220.058594 109.640625 223.796875 C 112.585938 227.535156 118 228.179688 121.730469 225.238281 L 187.796875 173.152344 C 191.523438 170.203125 192.160156 164.789062 189.21875 161.058594 Z M 174.117188 151.011719 C 171.167969 147.273438 165.757812 146.628906 162.023438 149.570312 L 104.816406 194.671875 C 101.085938 197.617188 100.449219 203.027344 103.398438 206.769531 C 106.34375 210.507812 111.757812 211.152344 115.488281 208.210938 L 172.691406 163.113281 C 176.429688 160.164062 177.058594 154.746094 174.117188 151.011719 Z M 174.117188 151.011719 " fill-opacity="1" fill-rule="nonzero"/></g></g></g></g><g clip-path="url(#60d0539c8f)"><g clip-path="url(#0d5f75bcde)"><g clip-path="url(#dd498c6d72)"><g clip-path="url(#f29ec3b8ef)"><path fill="#010101" d="M 102.011719 168.226562 C 102.921875 168.902344 103.113281 170.195312 102.429688 171.101562 C 102.316406 171.25 102.191406 171.382812 102.054688 171.488281 C 101.34375 172.046875 100.316406 172.082031 99.558594 171.519531 L 81.417969 157.976562 C 80.507812 157.300781 80.316406 156.007812 81 155.101562 C 81.679688 154.1875 82.96875 154 83.875 154.6875 Z M 332.046875 289.945312 C 335.152344 293.886719 334.476562 299.609375 330.546875 302.710938 L 214.398438 394.28125 C 210.464844 397.378906 204.742188 396.699219 201.636719 392.757812 C 198.53125 388.820312 199.203125 383.097656 203.136719 379.996094 L 203.363281 379.816406 C 199.976562 379.261719 196.90625 377.4375 194.71875 374.664062 C 191.835938 371.007812 190.933594 366.148438 192.34375 361.917969 L 194.421875 347.523438 C 196.386719 333.867188 193.171875 320.148438 185.808594 310.8125 C 185.109375 309.921875 185.257812 308.628906 186.148438 307.925781 L 190.816406 304.246094 L 132.359375 219.476562 L 123.003906 226.851562 C 118.386719 230.492188 111.671875 229.691406 108.027344 225.066406 C 104.917969 221.121094 105.042969 215.660156 108.015625 211.882812 C 105.632812 211.394531 103.410156 210.097656 101.785156 208.039062 C 98.140625 203.414062 98.929688 196.699219 103.546875 193.058594 L 104.878906 192.007812 L 45.484375 145.445312 C 44.988281 145.050781 44.699219 144.460938 44.691406 143.828125 C 44.6875 143.203125 44.976562 142.597656 45.472656 142.207031 C 49.6875 138.882812 55.179688 138.25 59.867188 140.054688 C 59.328125 135.976562 60.507812 131.757812 63.261719 128.539062 C 63.132812 128.390625 62.988281 128.25 62.867188 128.097656 C 58.917969 123.085938 59.773438 115.789062 64.777344 111.847656 L 66.054688 110.839844 L 62.976562 106.9375 C 57.867188 100.445312 58.976562 91.015625 65.453125 85.90625 C 71.933594 80.796875 81.363281 81.921875 86.476562 88.410156 L 89.554688 92.3125 L 90.832031 91.304688 C 95.832031 87.363281 103.125 88.230469 107.078125 93.242188 C 107.199219 93.398438 107.308594 93.5625 107.417969 93.726562 C 111.195312 91.796875 115.566406 91.636719 119.40625 93.113281 C 118.746094 88.136719 120.640625 82.945312 124.859375 79.621094 C 125.355469 79.230469 126.007812 79.089844 126.621094 79.246094 C 127.234375 79.402344 127.746094 79.824219 128.007812 80.40625 L 158.804688 149.492188 L 160.753906 147.957031 C 165.367188 144.316406 172.082031 145.117188 175.730469 149.742188 C 177.347656 151.796875 178.085938 154.269531 178.011719 156.695312 C 182.382812 154.695312 187.722656 155.847656 190.828125 159.785156 C 194.476562 164.410156 193.6875 171.128906 189.070312 174.765625 L 179.722656 182.136719 L 248.507812 258.761719 L 252.59375 255.539062 C 252.820312 255.363281 253.085938 255.238281 253.371094 255.160156 L 254.261719 254.9375 C 255.015625 254.753906 255.800781 255.003906 256.308594 255.585938 C 264.859375 265.394531 275.738281 271.304688 286.957031 272.234375 L 304.175781 273.652344 C 308.621094 273.269531 313.144531 275.285156 316.027344 278.9375 C 318.308594 281.832031 319.277344 285.328125 319.019531 288.644531 L 319.296875 288.425781 C 323.214844 285.324219 328.941406 286.007812 332.046875 289.945312 Z M 69.175781 108.15625 L 86.222656 94.71875 L 83.253906 90.953125 C 79.542969 86.246094 72.699219 85.429688 68 89.136719 C 63.300781 92.839844 62.496094 99.683594 66.207031 104.394531 Z M 66.089844 125.554688 C 66.167969 125.652344 66.257812 125.738281 66.34375 125.835938 C 70.402344 123.160156 75.402344 122.75 79.722656 124.410156 C 79.058594 119.433594 80.957031 114.242188 85.171875 110.917969 C 89.390625 107.59375 94.882812 106.960938 99.566406 108.765625 C 98.957031 104.175781 100.523438 99.414062 104.074219 96.089844 C 104.003906 95.988281 103.933594 95.886719 103.851562 95.785156 C 101.300781 92.546875 96.605469 91.988281 93.375 94.535156 L 67.324219 115.074219 C 64.097656 117.617188 63.539062 122.320312 66.089844 125.554688 Z M 108.199219 189.390625 L 155.476562 152.117188 L 125.488281 84.820312 C 122.691406 88.566406 122.625 93.882812 125.660156 97.734375 C 126.363281 98.625 126.210938 99.917969 125.320312 100.617188 C 124.433594 101.320312 123.140625 101.164062 122.4375 100.273438 C 118.816406 95.683594 112.148438 94.886719 107.5625 98.503906 C 102.980469 102.117188 102.195312 108.785156 105.816406 113.378906 C 106.519531 114.269531 106.367188 115.5625 105.476562 116.261719 C 104.585938 116.964844 103.296875 116.8125 102.59375 115.917969 C 98.972656 111.328125 92.304688 110.535156 87.71875 114.148438 C 83.136719 117.761719 82.351562 124.433594 85.972656 129.023438 C 86.675781 129.914062 86.523438 131.207031 85.632812 131.910156 C 84.742188 132.609375 83.449219 132.457031 82.75 131.566406 C 79.128906 126.972656 72.457031 126.179688 67.875 129.792969 C 63.289062 133.40625 62.507812 140.078125 66.128906 144.667969 C 66.828125 145.558594 66.679688 146.851562 65.789062 147.554688 C 64.898438 148.253906 63.605469 148.101562 62.902344 147.210938 C 59.863281 143.355469 54.667969 142.175781 50.359375 144.042969 Z M 105.007812 205.496094 C 107.25 208.339844 111.378906 208.832031 114.21875 206.59375 L 171.421875 161.492188 C 174.261719 159.257812 174.746094 155.125 172.503906 152.285156 C 170.265625 149.441406 166.132812 148.949219 163.296875 151.1875 L 159.617188 154.089844 C 159.527344 154.203125 159.421875 154.304688 159.304688 154.398438 L 109.527344 193.644531 C 109.410156 193.734375 109.277344 193.804688 109.152344 193.875 L 106.097656 196.28125 C 103.253906 198.523438 102.769531 202.65625 105.007812 205.496094 Z M 120.453125 223.617188 L 186.519531 171.53125 C 189.355469 169.292969 189.839844 165.164062 187.601562 162.320312 C 185.359375 159.480469 181.230469 158.988281 178.394531 161.222656 L 173.964844 164.714844 L 116.757812 209.816406 L 112.328125 213.308594 C 109.492188 215.546875 109.007812 219.675781 111.246094 222.519531 C 113.492188 225.367188 117.617188 225.851562 120.453125 223.617188 Z M 194.039062 301.703125 L 245.277344 261.308594 L 176.492188 184.683594 L 135.582031 216.933594 Z M 210.550781 374.148438 L 311.839844 294.222656 C 315.585938 291.269531 316.015625 285.554688 312.808594 281.488281 C 310.742188 278.863281 307.527344 277.441406 304.402344 277.757812 C 304.277344 277.773438 304.148438 277.769531 304.027344 277.761719 L 286.628906 276.324219 C 274.796875 275.347656 263.367188 269.375 254.269531 259.457031 L 249.542969 263.183594 L 194.871094 306.285156 L 190.261719 309.917969 C 197.539062 320.144531 200.527344 333.933594 198.480469 348.125 L 196.375 362.707031 C 196.351562 362.839844 196.320312 362.96875 196.28125 363.09375 C 195.246094 366.046875 195.878906 369.515625 197.933594 372.125 C 199.507812 374.121094 201.703125 375.417969 204.117188 375.789062 C 206.464844 376.144531 208.757812 375.5625 210.550781 374.148438 Z M 328.820312 292.488281 C 327.121094 290.332031 323.984375 289.957031 321.828125 291.65625 L 213.097656 377.378906 C 213.097656 377.378906 213.097656 377.378906 213.089844 377.382812 L 205.675781 383.230469 C 203.523438 384.925781 203.152344 388.066406 204.851562 390.222656 C 206.554688 392.378906 209.691406 392.753906 211.847656 391.054688 L 327.992188 299.488281 C 330.152344 297.785156 330.523438 294.644531 328.820312 292.488281 Z M 328.820312 292.488281 " fill-opacity="1" fill-rule="nonzero"/></g></g></g></g><g clip-path="url(#bc9fba9998)"><g clip-path="url(#c4abb942e1)"><g clip-path="url(#451ffbb443)"><g clip-path="url(#2d18f849e1)"><path fill="#ffffff" d="M 107.140625 253.511719 L 141.480469 175.644531 L 194.457031 194.011719 L 173.222656 276.425781 Z M 179.984375 278.773438 L 100.453125 251.195312 L 99.675781 250.921875 C 95.195312 263.84375 84.195312 273.816406 72.1875 279.261719 L 58.714844 285.371094 C 54.949219 286.257812 51.828125 289.148438 50.496094 292.992188 C 48.414062 298.996094 51.273438 305.441406 56.886719 307.378906 L 179.363281 349.789062 C 184.972656 351.734375 191.203125 348.441406 193.28125 342.445312 L 193.285156 342.4375 C 194.617188 338.601562 193.957031 334.386719 191.546875 331.359375 L 183.335938 315.875 C 177.484375 304.835938 177.019531 291.851562 180.65625 279.40625 Z M 192.652344 361.933594 C 193.929688 358.246094 191.980469 354.222656 188.296875 352.945312 L 47.925781 304.273438 C 44.242188 302.992188 40.222656 304.945312 38.941406 308.632812 C 37.664062 312.324219 39.613281 316.34375 43.296875 317.621094 L 183.667969 366.296875 C 187.351562 367.574219 191.371094 365.625 192.652344 361.933594 Z M 218.878906 193.371094 C 220.441406 188.855469 218.054688 183.929688 213.546875 182.367188 L 133.703125 154.679688 C 129.191406 153.113281 124.269531 155.503906 122.703125 160.019531 C 121.136719 164.535156 123.523438 169.460938 128.035156 171.023438 L 207.878906 198.710938 C 212.390625 200.273438 217.3125 197.882812 218.878906 193.371094 Z M 219.191406 175.167969 C 220.757812 170.652344 218.371094 165.730469 213.859375 164.164062 L 144.722656 140.191406 C 140.210938 138.625 135.289062 141.015625 133.722656 145.53125 C 132.15625 150.046875 134.542969 154.972656 139.054688 156.535156 L 208.183594 180.507812 C 212.703125 182.074219 217.625 179.683594 219.191406 175.167969 Z M 229.75 79.074219 C 231.3125 74.5625 228.929688 69.636719 224.417969 68.070312 L 195.921875 58.191406 C 191.410156 56.625 186.488281 59.015625 184.921875 63.53125 C 183.355469 68.046875 185.742188 72.972656 190.253906 74.535156 L 218.742188 84.414062 C 223.261719 85.980469 228.183594 83.589844 229.75 79.074219 Z M 243.574219 93.023438 L 165.429688 65.925781 C 159.414062 63.839844 153.046875 68.035156 152.59375 74.398438 L 147.792969 141.253906 L 210.796875 163.101562 L 248.417969 107.625 C 251.992188 102.347656 249.597656 95.113281 243.574219 93.023438 Z M 235.679688 46.722656 L 225.136719 43.066406 L 228.792969 32.515625 L 216.808594 28.359375 L 213.152344 38.910156 L 202.609375 35.253906 L 198.449219 47.257812 L 208.992188 50.910156 L 205.332031 61.460938 L 217.324219 65.621094 L 220.984375 55.0625 L 231.527344 58.71875 L 235.6875 46.722656 Z M 235.679688 46.722656 " fill-opacity="1" fill-rule="nonzero"/></g></g></g></g><g clip-path="url(#be4ae90379)"><g clip-path="url(#7341fe552f)"><g clip-path="url(#1d4f76fdc9)"><g clip-path="url(#647b797db9)"><path fill="#010101" d="M 172.546875 278.375 L 106.46875 255.464844 C 105.925781 255.273438 105.480469 254.867188 105.257812 254.335938 C 105.03125 253.804688 105.027344 253.207031 105.261719 252.679688 L 139.605469 174.808594 C 140.042969 173.824219 141.15625 173.335938 142.167969 173.6875 L 195.144531 192.058594 C 196.15625 192.410156 196.734375 193.484375 196.460938 194.523438 L 175.226562 276.9375 C 175.082031 277.5 174.710938 277.964844 174.207031 278.246094 C 173.683594 278.515625 173.089844 278.566406 172.546875 278.375 Z M 109.933594 252.296875 L 171.785156 273.746094 L 191.988281 195.339844 L 142.597656 178.214844 Z M 56.210938 309.328125 C 52.953125 308.199219 50.367188 305.792969 48.925781 302.546875 C 47.503906 299.347656 47.375 295.71875 48.554688 292.320312 C 50.085938 287.90625 53.703125 284.515625 58.046875 283.417969 L 71.347656 277.390625 C 83.960938 271.664062 93.828125 261.519531 97.734375 250.25 C 98.105469 249.175781 99.28125 248.605469 100.359375 248.976562 L 180.667969 276.824219 C 180.941406 276.917969 181.191406 277.078125 181.402344 277.273438 L 182.074219 277.90625 C 182.640625 278.433594 182.859375 279.246094 182.636719 279.988281 C 178.96875 292.519531 179.863281 304.917969 185.15625 314.90625 L 193.285156 330.234375 C 196.015625 333.785156 196.761719 338.699219 195.234375 343.113281 C 192.78125 350.1875 185.355469 354.050781 178.683594 351.746094 Z M 100.898438 253.53125 C 96.195312 265.207031 86.148438 275.203125 73.039062 281.144531 L 59.5625 287.253906 C 59.441406 287.308594 59.3125 287.351562 59.1875 287.386719 C 56.125 288.105469 53.535156 290.519531 52.441406 293.667969 C 51.605469 296.078125 51.699219 298.632812 52.691406 300.875 C 53.664062 303.0625 55.394531 304.6875 57.5625 305.4375 L 180.035156 347.847656 C 184.5625 349.414062 189.628906 346.691406 191.332031 341.777344 C 192.429688 338.613281 191.894531 335.125 189.929688 332.652344 C 189.851562 332.554688 189.785156 332.445312 189.726562 332.335938 L 181.515625 316.847656 C 175.933594 306.316406 174.792969 293.421875 178.253906 280.363281 L 100.898438 253.539062 Z M 182.992188 368.246094 L 42.621094 319.570312 C 37.867188 317.921875 35.34375 312.714844 36.996094 307.957031 C 38.644531 303.203125 43.851562 300.675781 48.601562 302.324219 L 188.972656 350.996094 C 193.726562 352.644531 196.25 357.851562 194.601562 362.609375 C 192.949219 367.367188 187.746094 369.894531 182.992188 368.246094 Z M 47.25 306.222656 C 44.648438 305.320312 41.792969 306.707031 40.890625 309.308594 C 39.988281 311.914062 41.371094 314.769531 43.972656 315.671875 L 184.34375 364.347656 C 186.945312 365.25 189.800781 363.863281 190.703125 361.257812 C 191.605469 358.65625 190.222656 355.796875 187.621094 354.894531 Z M 207.203125 200.660156 L 127.359375 172.972656 C 121.78125 171.039062 118.820312 164.929688 120.753906 159.34375 C 122.691406 153.761719 128.800781 150.796875 134.378906 152.730469 L 214.222656 180.417969 C 219.800781 182.351562 222.761719 188.460938 220.824219 194.046875 C 218.890625 199.628906 212.78125 202.59375 207.203125 200.660156 Z M 133.027344 156.628906 C 129.597656 155.441406 125.839844 157.265625 124.652344 160.695312 C 123.460938 164.125 125.28125 167.886719 128.710938 169.074219 L 208.554688 196.761719 C 211.980469 197.949219 215.738281 196.125 216.929688 192.695312 C 218.117188 189.261719 216.296875 185.503906 212.867188 184.316406 Z M 207.515625 182.460938 L 138.378906 158.484375 C 132.800781 156.550781 129.839844 150.441406 131.777344 144.855469 C 133.710938 139.273438 139.820312 136.308594 145.398438 138.242188 L 214.535156 162.214844 C 220.113281 164.148438 223.074219 170.261719 221.140625 175.84375 C 219.203125 181.425781 213.09375 184.394531 207.515625 182.460938 Z M 144.046875 142.140625 C 140.617188 140.953125 136.859375 142.777344 135.671875 146.207031 C 134.480469 149.636719 136.304688 153.398438 139.730469 154.585938 L 208.867188 178.558594 C 212.296875 179.75 216.054688 177.925781 217.242188 174.492188 C 218.433594 171.0625 216.613281 167.304688 213.183594 166.113281 Z M 218.074219 86.367188 L 189.578125 76.484375 C 184 74.550781 181.039062 68.441406 182.972656 62.855469 C 184.910156 57.273438 191.019531 54.308594 196.597656 56.242188 L 225.085938 66.121094 C 230.664062 68.054688 233.625 74.164062 231.6875 79.75 C 229.761719 85.335938 223.644531 88.296875 218.074219 86.367188 Z M 195.246094 60.140625 C 191.816406 58.953125 188.058594 60.777344 186.871094 64.207031 C 185.679688 67.636719 187.5 71.398438 190.929688 72.585938 L 219.417969 82.464844 C 222.84375 83.652344 226.601562 81.828125 227.792969 78.398438 C 228.984375 74.964844 227.160156 71.207031 223.734375 70.019531 Z M 210.113281 165.050781 L 147.117188 143.203125 C 146.238281 142.898438 145.671875 142.039062 145.738281 141.109375 L 150.53125 74.25 C 150.792969 70.574219 152.714844 67.300781 155.785156 65.273438 C 158.859375 63.246094 162.621094 62.769531 166.097656 63.976562 L 244.242188 91.074219 C 247.726562 92.28125 250.378906 94.972656 251.539062 98.476562 C 252.695312 101.980469 252.171875 105.730469 250.105469 108.777344 L 212.484375 164.253906 C 211.980469 165.03125 211.003906 165.359375 210.113281 165.050781 Z M 149.957031 139.820312 L 209.96875 160.632812 L 246.699219 106.460938 C 248.042969 104.480469 248.378906 102.046875 247.628906 99.777344 C 246.878906 97.507812 245.148438 95.753906 242.890625 94.972656 L 164.753906 67.878906 C 162.492188 67.09375 160.054688 67.402344 158.054688 68.71875 C 156.0625 70.035156 154.820312 72.15625 154.648438 74.542969 Z M 160.742188 123.347656 C 161.875 123.425781 162.863281 122.570312 162.949219 121.4375 L 165.054688 92.136719 C 165.132812 91 164.277344 90.015625 163.148438 89.929688 C 162.015625 89.851562 161.027344 90.703125 160.941406 91.835938 L 158.835938 121.140625 C 158.765625 122.09375 159.355469 122.9375 160.214844 123.234375 C 160.375 123.296875 160.554688 123.335938 160.742188 123.347656 Z M 216.648438 67.5625 L 204.660156 63.40625 C 203.582031 63.03125 203.011719 61.855469 203.386719 60.78125 L 206.367188 52.179688 L 197.773438 49.199219 C 196.699219 48.824219 196.128906 47.648438 196.503906 46.574219 L 200.660156 34.578125 C 201.035156 33.503906 202.210938 32.933594 203.285156 33.304688 L 211.878906 36.285156 L 214.863281 27.683594 C 215.234375 26.609375 216.410156 26.039062 217.488281 26.410156 L 229.476562 30.570312 C 230.554688 30.941406 231.125 32.117188 230.75 33.195312 L 227.765625 41.792969 L 236.363281 44.773438 C 237.4375 45.148438 238.007812 46.324219 237.632812 47.398438 L 233.472656 59.402344 C 233.097656 60.476562 231.921875 61.046875 230.847656 60.675781 L 222.253906 57.695312 L 219.269531 66.296875 C 218.902344 67.363281 217.726562 67.9375 216.648438 67.5625 Z M 207.957031 60.179688 L 216.054688 62.988281 L 219.035156 54.386719 C 219.410156 53.3125 220.585938 52.738281 221.660156 53.113281 L 230.253906 56.09375 L 233.0625 48 L 224.46875 45.019531 C 223.390625 44.644531 222.824219 43.46875 223.195312 42.394531 L 226.179688 33.792969 L 218.082031 30.984375 L 215.101562 39.585938 C 214.726562 40.664062 213.550781 41.234375 212.476562 40.859375 L 203.882812 37.878906 L 201.070312 45.980469 L 209.667969 48.960938 C 210.742188 49.335938 211.3125 50.511719 210.9375 51.585938 Z M 207.957031 60.179688 " fill-opacity="1" fill-rule="nonzero"/></g></g></g></g></svg>