<svg xmlns="http://www.w3.org/2000/svg" xmlns:xlink="http://www.w3.org/1999/xlink" width="404" zoomAndPan="magnify" viewBox="0 0 303 372.749986" height="497" preserveAspectRatio="xMidYMid meet" version="1.0"><defs><clipPath id="86c71db5e3"><path d="M 0.101562 82 L 256 82 L 256 355 L 0.101562 355 Z M 0.101562 82 " clip-rule="nonzero"/></clipPath><clipPath id="67a5d0591b"><path d="M 171.371094 34.796875 L 301.949219 137.921875 L 130.542969 354.960938 L -0.0351562 251.839844 Z M 171.371094 34.796875 " clip-rule="nonzero"/></clipPath><clipPath id="f7cedc46f7"><path d="M 302.171875 138.09375 L 171.59375 34.972656 L -36.511719 298.480469 L 94.066406 401.605469 Z M 302.171875 138.09375 " clip-rule="nonzero"/></clipPath><clipPath id="4f1a8b524b"><path d="M 302.171875 138.09375 L 171.59375 34.972656 L -36.511719 298.480469 L 94.066406 401.605469 Z M 302.171875 138.09375 " clip-rule="nonzero"/></clipPath><clipPath id="6452de6479"><path d="M 0.101562 80 L 258 80 L 258 355 L 0.101562 355 Z M 0.101562 80 " clip-rule="nonzero"/></clipPath><clipPath id="b0df9a48b7"><path d="M 171.371094 34.796875 L 301.949219 137.921875 L 130.542969 354.960938 L -0.0351562 251.839844 Z M 171.371094 34.796875 " clip-rule="nonzero"/></clipPath><clipPath id="4c80a51e0c"><path d="M 302.171875 138.09375 L 171.59375 34.972656 L -36.511719 298.480469 L 94.066406 401.605469 Z M 302.171875 138.09375 " clip-rule="nonzero"/></clipPath><clipPath id="92a75d47f4"><path d="M 302.171875 138.09375 L 171.59375 34.972656 L -36.511719 298.480469 L 94.066406 401.605469 Z M 302.171875 138.09375 " clip-rule="nonzero"/></clipPath><clipPath id="ee1e004887"><path d="M 52 28 L 265 28 L 265 367 L 52 367 Z M 52 28 " clip-rule="nonzero"/></clipPath><clipPath id="1939a19e1b"><path d="M 0.851562 54.738281 L 158.789062 0.046875 L 268.660156 317.335938 L 110.722656 372.027344 Z M 0.851562 54.738281 " clip-rule="nonzero"/></clipPath><clipPath id="5945e48f7e"><path d="M 158.921875 0 L 0.984375 54.691406 L 110.855469 371.980469 L 268.792969 317.289062 Z M 158.921875 0 " clip-rule="nonzero"/></clipPath><clipPath id="1ae6c7d331"><path d="M 158.921875 0 L 0.984375 54.691406 L 110.855469 371.980469 L 268.792969 317.289062 Z M 158.921875 0 " clip-rule="nonzero"/></clipPath><clipPath id="90bcfd21d8"><path d="M 50 25 L 267 25 L 267 370 L 50 370 Z M 50 25 " clip-rule="nonzero"/></clipPath><clipPath id="77e6951597"><path d="M 0.851562 54.738281 L 158.789062 0.046875 L 268.660156 317.335938 L 110.722656 372.027344 Z M 0.851562 54.738281 " clip-rule="nonzero"/></clipPath><clipPath id="a966a92ea4"><path d="M 158.921875 0 L 0.984375 54.691406 L 110.855469 371.980469 L 268.792969 317.289062 Z M 158.921875 0 " clip-rule="nonzero"/></clipPath><clipPath id="381ae4852c"><path d="M 158.921875 0 L 0.984375 54.691406 L 110.855469 371.980469 L 268.792969 317.289062 Z M 158.921875 0 " clip-rule="nonzero"/></clipPath></defs><g clip-path="url(#86c71db5e3)"><g clip-path="url(#67a5d0591b)"><g clip-path="url(#f7cedc46f7)"><g clip-path="url(#4f1a8b524b)"><path fill="#ffffff" d="M 212.9375 96.003906 L 233.230469 112.03125 L 237.484375 106.644531 C 241.917969 101.035156 240.964844 92.894531 235.363281 88.46875 C 229.761719 84.042969 221.621094 85.007812 217.191406 90.617188 Z M 184.394531 111.152344 C 184.683594 110.589844 196.144531 95.957031 196.550781 95.441406 C 199.820312 91.300781 205.808594 90.59375 209.9375 93.855469 L 236.023438 114.457031 C 240.152344 117.71875 240.851562 123.707031 237.582031 127.847656 C 237.117188 128.433594 225.476562 143.027344 224.921875 143.480469 M 175.855469 82.128906 C 181.339844 86.460938 182.269531 94.429688 177.929688 99.921875 C 182.269531 94.429688 190.234375 93.484375 195.722656 97.820312 C 201.207031 102.152344 202.136719 110.117188 197.796875 115.613281 C 202.136719 110.117188 210.101562 109.175781 215.589844 113.507812 C 221.074219 117.84375 222.003906 125.808594 217.664062 131.304688 C 222.003906 125.808594 229.96875 124.867188 235.457031 129.199219 C 240.941406 133.53125 241.871094 141.5 237.53125 146.996094 C 241.871094 141.5 249.835938 140.558594 255.324219 144.890625 L 193.667969 193.125 L 143.832031 153.765625 Z M 47.742188 258.253906 L 113.625 310.285156 L 114.269531 310.792969 C 105.808594 321.507812 103.328125 336.113281 105.195312 349.132812 L 107.289062 363.742188 C 108.566406 367.382812 107.8125 371.566406 105.292969 374.753906 C 101.363281 379.730469 94.40625 380.789062 89.765625 377.109375 L -11.640625 296.953125 C -16.289062 293.28125 -16.867188 286.277344 -12.941406 281.304688 L -12.933594 281.296875 C -10.421875 278.117188 -6.527344 276.40625 -2.6875 276.804688 L 14.742188 275.378906 C 27.167969 274.367188 38.335938 267.777344 46.847656 258.03125 Z M -28.988281 292.3125 C -26.574219 289.253906 -22.148438 288.730469 -19.09375 291.140625 L 97.1875 382.972656 C 100.238281 385.382812 100.757812 389.8125 98.339844 392.871094 C 95.925781 395.929688 91.5 396.453125 88.445312 394.042969 L -27.835938 302.210938 C -30.886719 299.796875 -31.40625 295.371094 -28.988281 292.3125 Z M 53.34375 262.675781 L 125.71875 182.195312 L 169.605469 216.855469 L 108.085938 305.910156 Z M 112.589844 162.035156 C 115.546875 158.292969 120.96875 157.648438 124.707031 160.601562 L 190.847656 212.835938 C 194.585938 215.789062 195.214844 221.210938 192.261719 224.953125 C 189.304688 228.699219 183.882812 229.339844 180.144531 226.386719 L 114.003906 174.152344 C 110.273438 171.195312 109.640625 165.773438 112.589844 162.035156 Z M 127.726562 151.984375 C 130.683594 148.242188 136.105469 147.601562 139.84375 150.550781 L 197.113281 195.78125 C 200.851562 198.734375 201.484375 204.15625 198.527344 207.902344 C 195.570312 211.644531 190.148438 212.285156 186.414062 209.335938 L 129.148438 164.109375 C 125.402344 161.152344 124.777344 155.722656 127.726562 151.984375 Z M 127.726562 151.984375 " fill-opacity="1" fill-rule="nonzero"/></g></g></g></g><g clip-path="url(#6452de6479)"><g clip-path="url(#b0df9a48b7)"><g clip-path="url(#4c80a51e0c)"><g clip-path="url(#92a75d47f4)"><path fill="#010101" d="M 199.949219 169.289062 C 199.039062 169.964844 198.84375 171.261719 199.527344 172.167969 C 199.640625 172.320312 199.765625 172.453125 199.902344 172.558594 C 200.613281 173.121094 201.640625 173.15625 202.402344 172.589844 L 220.589844 159.039062 C 221.5 158.363281 221.695312 157.066406 221.007812 156.160156 C 220.328125 155.242188 219.039062 155.054688 218.128906 155.742188 Z M -30.605469 291.035156 C -33.71875 294.980469 -33.050781 300.714844 -29.113281 303.824219 L 87.167969 395.660156 C 91.105469 398.769531 96.839844 398.089844 99.953125 394.144531 C 103.070312 390.203125 102.402344 384.464844 98.464844 381.355469 L 98.238281 381.179688 C 101.628906 380.625 104.703125 378.800781 106.902344 376.023438 C 109.789062 372.363281 110.699219 367.496094 109.289062 363.253906 L 107.222656 348.835938 C 105.261719 335.152344 108.496094 321.410156 115.878906 312.0625 C 116.582031 311.171875 116.433594 309.875 115.542969 309.171875 L 110.867188 305.480469 L 169.503906 220.605469 L 178.867188 228.003906 C 183.488281 231.652344 190.21875 230.859375 193.875 226.226562 C 196.992188 222.277344 196.871094 216.804688 193.898438 213.019531 C 196.285156 212.53125 198.511719 211.238281 200.140625 209.175781 C 203.796875 204.546875 203.011719 197.816406 198.390625 194.167969 L 197.054688 193.109375 L 256.597656 146.515625 C 257.097656 146.121094 257.386719 145.53125 257.394531 144.898438 C 257.394531 144.269531 257.109375 143.664062 256.613281 143.273438 C 252.390625 139.9375 246.890625 139.300781 242.195312 141.101562 C 242.738281 137.019531 241.558594 132.792969 238.804688 129.566406 C 238.933594 129.414062 239.074219 129.273438 239.195312 129.121094 C 243.160156 124.101562 242.308594 116.796875 237.296875 112.839844 L 236.019531 111.832031 L 239.105469 107.925781 C 244.230469 101.421875 243.128906 91.976562 236.640625 86.851562 C 230.152344 81.730469 220.707031 82.847656 215.578125 89.34375 L 212.492188 93.25 L 211.214844 92.242188 C 206.207031 88.285156 198.898438 89.148438 194.9375 94.167969 C 194.816406 94.320312 194.707031 94.488281 194.597656 94.652344 C 190.8125 92.714844 186.433594 92.550781 182.585938 94.027344 C 183.253906 89.042969 181.355469 83.839844 177.136719 80.503906 C 176.636719 80.113281 175.984375 79.972656 175.367188 80.128906 C 174.753906 80.285156 174.242188 80.707031 173.980469 81.289062 L 143.066406 150.476562 L 141.117188 148.933594 C 136.496094 145.285156 129.769531 146.082031 126.113281 150.710938 C 124.488281 152.765625 123.746094 155.246094 123.820312 157.675781 C 119.441406 155.667969 114.089844 156.816406 110.976562 160.761719 C 107.320312 165.390625 108.105469 172.117188 112.726562 175.769531 L 122.085938 183.160156 L 53.113281 259.867188 L 49.019531 256.636719 C 48.792969 256.457031 48.527344 256.332031 48.242188 256.253906 L 47.347656 256.03125 C 46.59375 255.84375 45.808594 256.09375 45.296875 256.679688 C 36.726562 266.496094 25.820312 272.410156 14.582031 273.328125 L -2.671875 274.738281 C -7.121094 274.351562 -11.65625 276.363281 -14.546875 280.023438 C -16.835938 282.917969 -17.808594 286.421875 -17.550781 289.746094 L -17.828125 289.527344 C -21.753906 286.414062 -27.488281 287.09375 -30.605469 291.035156 Z M 232.894531 109.140625 L 215.828125 95.664062 L 218.804688 91.894531 C 222.527344 87.179688 229.382812 86.367188 234.085938 90.085938 C 238.792969 93.800781 239.59375 100.65625 235.871094 105.371094 Z M 235.96875 126.570312 C 235.894531 126.667969 235.804688 126.753906 235.714844 126.855469 C 231.652344 124.167969 226.644531 123.753906 222.316406 125.414062 C 222.984375 120.429688 221.085938 115.226562 216.863281 111.894531 C 212.644531 108.558594 207.144531 107.921875 202.449219 109.722656 C 203.0625 105.125 201.496094 100.351562 197.941406 97.023438 C 198.011719 96.921875 198.082031 96.816406 198.164062 96.714844 C 200.722656 93.476562 205.429688 92.917969 208.660156 95.472656 L 234.746094 116.074219 C 237.972656 118.621094 238.527344 123.332031 235.96875 126.570312 Z M 193.730469 190.484375 L 146.398438 153.105469 L 176.5 85.714844 C 179.300781 89.46875 179.359375 94.796875 176.316406 98.648438 C 175.609375 99.542969 175.761719 100.835938 176.652344 101.539062 C 177.542969 102.242188 178.839844 102.089844 179.542969 101.199219 C 183.171875 96.601562 189.855469 95.8125 194.445312 99.433594 C 199.035156 103.058594 199.8125 109.742188 196.183594 114.339844 C 195.476562 115.230469 195.628906 116.527344 196.519531 117.230469 C 197.410156 117.933594 198.707031 117.78125 199.410156 116.886719 C 203.039062 112.292969 209.722656 111.5 214.3125 115.125 C 218.902344 118.75 219.679688 125.433594 216.050781 130.03125 C 215.347656 130.921875 215.496094 132.21875 216.386719 132.921875 C 217.277344 133.625 218.574219 133.472656 219.277344 132.578125 C 222.90625 127.980469 229.589844 127.191406 234.179688 130.816406 C 238.769531 134.441406 239.546875 141.125 235.917969 145.71875 C 235.214844 146.613281 235.363281 147.90625 236.253906 148.609375 C 237.144531 149.316406 238.441406 149.160156 239.144531 148.269531 C 242.195312 144.410156 247.402344 143.230469 251.714844 145.105469 Z M 196.914062 206.625 C 194.667969 209.472656 190.527344 209.960938 187.6875 207.71875 L 130.417969 162.488281 C 127.578125 160.242188 127.09375 156.105469 129.339844 153.257812 C 131.585938 150.414062 135.726562 149.925781 138.566406 152.167969 L 142.25 155.078125 C 142.339844 155.191406 142.445312 155.296875 142.5625 155.386719 L 192.398438 194.746094 C 192.515625 194.839844 192.648438 194.910156 192.773438 194.976562 L 195.832031 197.394531 C 198.679688 199.640625 199.160156 203.78125 196.914062 206.625 Z M 181.425781 224.765625 L 115.285156 172.53125 C 112.445312 170.285156 111.960938 166.148438 114.210938 163.300781 C 116.457031 160.457031 120.59375 159.96875 123.433594 162.210938 L 127.867188 165.714844 L 185.140625 210.945312 L 189.574219 214.445312 C 192.414062 216.6875 192.898438 220.828125 190.652344 223.671875 C 188.398438 226.523438 184.265625 227.007812 181.425781 224.765625 Z M 107.640625 302.933594 L 56.34375 262.421875 L 125.320312 185.714844 L 166.273438 218.058594 Z M 91.039062 375.496094 L -10.367188 295.335938 C -14.117188 292.375 -14.542969 286.652344 -11.324219 282.578125 C -9.253906 279.953125 -6.03125 278.527344 -2.898438 278.851562 C -2.777344 278.863281 -2.648438 278.863281 -2.523438 278.851562 L 14.90625 277.429688 C 26.761719 276.460938 38.21875 270.488281 47.335938 260.558594 L 52.070312 264.292969 L 106.804688 307.519531 L 111.417969 311.164062 C 104.121094 321.402344 101.117188 335.214844 103.15625 349.433594 L 105.25 364.042969 C 105.273438 364.175781 105.304688 364.304688 105.34375 364.429688 C 106.378906 367.390625 105.742188 370.867188 103.679688 373.476562 C 102.101562 375.476562 99.902344 376.773438 97.484375 377.140625 C 95.128906 377.496094 92.835938 376.910156 91.039062 375.496094 Z M -27.375 293.585938 C -25.671875 291.425781 -22.527344 291.054688 -20.371094 292.757812 L 88.488281 378.726562 C 88.488281 378.726562 88.488281 378.726562 88.492188 378.734375 L 95.917969 384.59375 C 98.074219 386.296875 98.4375 389.441406 96.734375 391.601562 C 95.027344 393.761719 91.882812 394.132812 89.726562 392.429688 L -26.550781 300.597656 C -28.714844 298.890625 -29.082031 295.746094 -27.375 293.585938 Z M -27.375 293.585938 " fill-opacity="1" fill-rule="nonzero"/></g></g></g></g><g clip-path="url(#ee1e004887)"><g clip-path="url(#1939a19e1b)"><g clip-path="url(#5945e48f7e)"><g clip-path="url(#1ae6c7d331)"><path fill="#ffffff" d="M 195.40625 253.648438 L 161.035156 175.625 L 107.953125 194.003906 L 129.195312 276.578125 Z M 122.417969 278.921875 L 202.105469 251.328125 L 202.886719 251.058594 C 207.367188 264.003906 218.382812 274 230.40625 279.460938 L 243.902344 285.585938 C 247.671875 286.476562 250.800781 289.375 252.136719 293.226562 C 254.21875 299.242188 251.347656 305.695312 245.722656 307.636719 L 123.007812 350.066406 C 117.386719 352.015625 111.148438 348.714844 109.066406 342.707031 L 109.066406 342.699219 C 107.734375 338.855469 108.398438 334.632812 110.808594 331.601562 L 119.042969 316.089844 C 124.910156 305.035156 125.382812 292.027344 121.746094 279.558594 Z M 109.691406 362.230469 C 108.410156 358.535156 110.367188 354.507812 114.058594 353.230469 L 254.703125 304.527344 C 258.394531 303.246094 262.421875 305.203125 263.703125 308.902344 C 264.980469 312.597656 263.027344 316.625 259.335938 317.902344 L 118.691406 366.605469 C 114.996094 367.882812 110.972656 365.925781 109.691406 362.230469 Z M 83.492188 193.351562 C 81.925781 188.824219 84.316406 183.894531 88.835938 182.328125 L 168.835938 154.625 C 173.355469 153.0625 178.285156 155.457031 179.855469 159.980469 C 181.421875 164.503906 179.027344 169.4375 174.507812 171.003906 L 94.507812 198.707031 C 89.988281 200.269531 85.058594 197.875 83.492188 193.351562 Z M 83.183594 175.117188 C 81.617188 170.59375 84.007812 165.660156 88.53125 164.09375 L 157.800781 140.105469 C 162.320312 138.542969 167.253906 140.9375 168.820312 145.460938 C 170.386719 149.984375 167.992188 154.917969 163.472656 156.484375 L 94.207031 180.46875 C 89.679688 182.035156 84.75 179.640625 83.183594 175.117188 Z M 72.648438 78.84375 C 71.082031 74.320312 73.476562 69.386719 77.996094 67.824219 L 106.546875 57.9375 C 111.066406 56.371094 115.996094 58.769531 117.5625 63.292969 C 119.128906 67.816406 116.738281 72.75 112.214844 74.3125 L 83.675781 84.199219 C 79.144531 85.765625 74.214844 83.367188 72.648438 78.84375 Z M 58.792969 92.8125 L 137.089844 65.699219 C 143.117188 63.613281 149.496094 67.820312 149.945312 74.191406 L 154.726562 141.171875 L 91.597656 163.03125 L 53.933594 107.4375 C 50.355469 102.148438 52.757812 94.902344 58.792969 92.8125 Z M 66.722656 46.429688 L 77.285156 42.773438 L 73.625 32.199219 L 85.632812 28.042969 L 89.292969 38.613281 L 99.855469 34.957031 L 104.019531 46.980469 L 93.457031 50.640625 L 97.117188 61.210938 L 85.101562 65.371094 L 81.4375 54.792969 L 70.875 58.449219 L 66.714844 46.433594 Z M 66.722656 46.429688 " fill-opacity="1" fill-rule="nonzero"/></g></g></g></g><g clip-path="url(#90bcfd21d8)"><g clip-path="url(#77e6951597)"><g clip-path="url(#a966a92ea4)"><g clip-path="url(#381ae4852c)"><path fill="#010101" d="M 129.871094 278.53125 L 196.074219 255.605469 C 196.621094 255.414062 197.066406 255.007812 197.292969 254.476562 C 197.519531 253.941406 197.519531 253.34375 197.285156 252.8125 L 162.914062 174.789062 C 162.476562 173.804688 161.363281 173.316406 160.347656 173.667969 L 107.265625 192.046875 C 106.253906 192.398438 105.671875 193.472656 105.945312 194.515625 L 127.183594 277.089844 C 127.328125 277.652344 127.699219 278.117188 128.207031 278.398438 C 128.730469 278.671875 129.324219 278.71875 129.871094 278.53125 Z M 192.605469 252.429688 L 130.632812 273.890625 L 110.425781 195.335938 L 159.914062 178.199219 Z M 246.402344 309.589844 C 249.664062 308.457031 252.257812 306.046875 253.703125 302.800781 C 255.128906 299.59375 255.257812 295.960938 254.078125 292.554688 C 252.546875 288.128906 248.921875 284.730469 244.574219 283.628906 L 231.253906 277.585938 C 218.617188 271.84375 208.738281 261.675781 204.828125 250.386719 C 204.457031 249.308594 203.277344 248.734375 202.199219 249.109375 L 121.734375 276.972656 C 121.460938 277.066406 121.207031 277.222656 120.996094 277.421875 L 120.324219 278.054688 C 119.757812 278.585938 119.539062 279.394531 119.761719 280.140625 C 123.425781 292.695312 122.527344 305.117188 117.21875 315.121094 L 109.070312 330.472656 C 106.335938 334.027344 105.582031 338.953125 107.113281 343.375 C 109.566406 350.460938 117.003906 354.335938 123.6875 352.027344 Z M 201.65625 253.671875 C 206.363281 265.367188 216.421875 275.386719 229.558594 281.347656 L 243.050781 287.472656 C 243.175781 287.527344 243.304688 287.570312 243.429688 287.605469 C 246.496094 288.328125 249.089844 290.746094 250.183594 293.902344 C 251.019531 296.316406 250.925781 298.878906 249.929688 301.121094 C 248.957031 303.3125 247.222656 304.9375 245.050781 305.691406 L 122.335938 348.121094 C 117.800781 349.691406 112.726562 346.960938 111.023438 342.039062 C 109.925781 338.867188 110.460938 335.371094 112.429688 332.898438 C 112.507812 332.800781 112.578125 332.6875 112.636719 332.582031 L 120.867188 317.070312 C 126.464844 306.519531 127.613281 293.601562 124.152344 280.519531 L 201.660156 253.679688 Z M 119.367188 368.558594 L 260.011719 319.855469 C 264.773438 318.207031 267.304688 312.992188 265.652344 308.226562 C 264.003906 303.457031 258.789062 300.925781 254.027344 302.574219 L 113.382812 351.277344 C 108.621094 352.925781 106.089844 358.140625 107.738281 362.90625 C 109.390625 367.671875 114.605469 370.207031 119.367188 368.558594 Z M 255.378906 306.480469 C 257.988281 305.578125 260.847656 306.964844 261.75 309.578125 C 262.652344 312.1875 261.265625 315.046875 258.65625 315.949219 L 118.015625 364.652344 C 115.40625 365.554688 112.546875 364.164062 111.644531 361.554688 C 110.738281 358.945312 112.128906 356.085938 114.734375 355.183594 Z M 95.183594 200.660156 L 175.183594 172.957031 C 180.773438 171.019531 183.742188 164.898438 181.804688 159.304688 C 179.867188 153.710938 173.75 150.738281 168.160156 152.671875 L 88.160156 180.375 C 82.570312 182.3125 79.601562 188.429688 81.539062 194.027344 C 83.476562 199.621094 89.59375 202.59375 95.183594 200.660156 Z M 169.511719 156.578125 C 172.949219 155.390625 176.710938 157.21875 177.902344 160.65625 C 179.09375 164.09375 177.265625 167.859375 173.832031 169.050781 L 93.832031 196.75 C 90.398438 197.941406 86.632812 196.113281 85.441406 192.675781 C 84.253906 189.234375 86.078125 185.472656 89.515625 184.28125 Z M 94.878906 182.425781 L 164.148438 158.4375 C 169.738281 156.5 172.707031 150.378906 170.769531 144.785156 C 168.832031 139.191406 162.714844 136.21875 157.125 138.152344 L 87.851562 162.140625 C 82.261719 164.078125 79.292969 170.199219 81.230469 175.792969 C 83.167969 181.386719 89.289062 184.359375 94.878906 182.425781 Z M 158.476562 142.058594 C 161.914062 140.871094 165.675781 142.699219 166.867188 146.136719 C 168.058594 149.574219 166.230469 153.339844 162.796875 154.53125 L 93.523438 178.519531 C 90.089844 179.707031 86.324219 177.878906 85.136719 174.441406 C 83.945312 171.003906 85.769531 167.238281 89.207031 166.046875 Z M 84.34375 86.152344 L 112.894531 76.265625 C 118.484375 74.332031 121.453125 68.210938 119.515625 62.617188 C 117.578125 57.023438 111.460938 54.046875 105.871094 55.984375 L 77.328125 65.867188 C 71.738281 67.804688 68.769531 73.921875 70.703125 79.519531 C 72.632812 85.113281 78.761719 88.085938 84.34375 86.152344 Z M 107.222656 59.890625 C 110.65625 58.699219 114.421875 60.53125 115.609375 63.96875 C 116.800781 67.40625 114.976562 71.171875 111.539062 72.359375 L 82.996094 82.242188 C 79.5625 83.433594 75.800781 81.605469 74.609375 78.167969 C 73.417969 74.726562 75.246094 70.964844 78.679688 69.773438 Z M 92.28125 164.984375 L 155.402344 143.125 C 156.285156 142.820312 156.851562 141.957031 156.785156 141.027344 L 152.011719 74.042969 C 151.75 70.363281 149.828125 67.082031 146.753906 65.050781 C 143.671875 63.019531 139.902344 62.539062 136.421875 63.746094 L 58.125 90.855469 C 54.632812 92.066406 51.976562 94.761719 50.8125 98.273438 C 49.648438 101.78125 50.171875 105.539062 52.242188 108.589844 L 89.90625 164.1875 C 90.414062 164.964844 91.390625 165.289062 92.28125 164.984375 Z M 152.558594 139.734375 L 92.429688 160.558594 L 55.65625 106.273438 C 54.3125 104.289062 53.972656 101.847656 54.726562 99.578125 C 55.476562 97.304688 57.214844 95.546875 59.476562 94.765625 L 137.765625 67.652344 C 140.03125 66.871094 142.472656 67.179688 144.476562 68.496094 C 146.472656 69.820312 147.714844 71.945312 147.886719 74.335938 Z M 141.761719 123.226562 C 140.625 123.304688 139.636719 122.445312 139.550781 121.3125 L 137.457031 91.957031 C 137.378906 90.820312 138.234375 89.832031 139.367188 89.746094 C 140.5 89.667969 141.488281 90.523438 141.574219 91.65625 L 143.671875 121.015625 C 143.742188 121.972656 143.148438 122.816406 142.289062 123.113281 C 142.128906 123.175781 141.949219 123.214844 141.761719 123.226562 Z M 85.777344 67.316406 L 97.792969 63.15625 C 98.867188 62.78125 99.441406 61.605469 99.066406 60.527344 L 96.082031 51.910156 L 104.691406 48.925781 C 105.769531 48.554688 106.34375 47.375 105.96875 46.296875 L 101.808594 34.28125 C 101.433594 33.203125 100.257812 32.628906 99.179688 33.003906 L 90.566406 35.984375 L 87.582031 27.367188 C 87.210938 26.289062 86.03125 25.714844 84.957031 26.089844 L 72.941406 30.25 C 71.863281 30.621094 71.292969 31.800781 71.664062 32.878906 L 74.648438 41.496094 L 66.039062 44.480469 C 64.960938 44.851562 64.390625 46.03125 64.761719 47.109375 L 68.925781 59.132812 C 69.300781 60.210938 70.476562 60.785156 71.554688 60.410156 L 80.167969 57.429688 L 83.152344 66.046875 C 83.519531 67.117188 84.699219 67.691406 85.777344 67.316406 Z M 94.488281 59.925781 L 86.375 62.734375 L 83.390625 54.117188 C 83.015625 53.039062 81.839844 52.464844 80.761719 52.839844 L 72.152344 55.820312 L 69.34375 47.710938 L 77.953125 44.726562 C 79.03125 44.355469 79.601562 43.175781 79.230469 42.097656 L 76.246094 33.480469 L 84.355469 30.671875 L 87.339844 39.289062 C 87.714844 40.367188 88.890625 40.941406 89.96875 40.566406 L 98.582031 37.585938 L 101.390625 45.703125 L 92.78125 48.683594 C 91.703125 49.058594 91.132812 50.238281 91.503906 51.316406 Z M 94.488281 59.925781 " fill-opacity="1" fill-rule="nonzero"/></g></g></g></g></svg>